<svg width="113" height="11" viewBox="0 0 113 11" fill="none" xmlns="http://www.w3.org/2000/svg">
<path d="M3.36055 1.576C4.24855 1.576 5.02455 1.752 5.68855 2.104C6.35255 2.456 6.86455 2.952 7.22455 3.592C7.59255 4.224 7.77655 4.956 7.77655 5.788C7.77655 6.612 7.59255 7.344 7.22455 7.984C6.86455 8.624 6.34855 9.12 5.67655 9.472C5.01255 9.824 4.24055 10 3.36055 10H0.204548V1.576H3.36055ZM3.22855 8.224C4.00455 8.224 4.60855 8.012 5.04055 7.588C5.47255 7.164 5.68855 6.564 5.68855 5.788C5.68855 5.012 5.47255 4.408 5.04055 3.976C4.60855 3.544 4.00455 3.328 3.22855 3.328H2.25655V8.224H3.22855ZM15.5375 6.544C15.5375 6.736 15.5255 6.936 15.5015 7.144H10.8575C10.8895 7.56 11.0215 7.88 11.2535 8.104C11.4935 8.32 11.7855 8.428 12.1295 8.428C12.6415 8.428 12.9975 8.212 13.1975 7.78H15.3815C15.2695 8.22 15.0655 8.616 14.7695 8.968C14.4815 9.32 14.1175 9.596 13.6775 9.796C13.2375 9.996 12.7455 10.096 12.2015 10.096C11.5455 10.096 10.9615 9.956 10.4495 9.676C9.9375 9.396 9.5375 8.996 9.2495 8.476C8.9615 7.956 8.8175 7.348 8.8175 6.652C8.8175 5.956 8.9575 5.348 9.2375 4.828C9.5255 4.308 9.9255 3.908 10.4375 3.628C10.9495 3.348 11.5375 3.208 12.2015 3.208C12.8495 3.208 13.4255 3.344 13.9295 3.616C14.4335 3.888 14.8255 4.276 15.1055 4.78C15.3935 5.284 15.5375 5.872 15.5375 6.544ZM13.4375 6.004C13.4375 5.652 13.3175 5.372 13.0775 5.164C12.8375 4.956 12.5375 4.852 12.1775 4.852C11.8335 4.852 11.5415 4.952 11.3015 5.152C11.0695 5.352 10.9255 5.636 10.8695 6.004H13.4375ZM22.4062 1.576V3.22H18.9742V4.996H21.5422V6.592H18.9742V10H16.9222V1.576H22.4062ZM24.8189 2.608C24.4589 2.608 24.1629 2.504 23.9309 2.296C23.7069 2.08 23.5949 1.816 23.5949 1.504C23.5949 1.184 23.7069 0.92 23.9309 0.711999C24.1629 0.495999 24.4589 0.387999 24.8189 0.387999C25.1709 0.387999 25.4589 0.495999 25.6829 0.711999C25.9149 0.92 26.0309 1.184 26.0309 1.504C26.0309 1.816 25.9149 2.08 25.6829 2.296C25.4589 2.504 25.1709 2.608 24.8189 2.608ZM25.8389 3.304V10H23.7869V3.304H25.8389ZM38.0094 10H35.9574L32.5254 4.804V10H30.4734V1.576H32.5254L35.9574 6.796V1.576H38.0094V10ZM42.847 10.096C42.191 10.096 41.599 9.956 41.071 9.676C40.551 9.396 40.139 8.996 39.835 8.476C39.539 7.956 39.391 7.348 39.391 6.652C39.391 5.964 39.543 5.36 39.847 4.84C40.151 4.312 40.567 3.908 41.095 3.628C41.623 3.348 42.215 3.208 42.871 3.208C43.527 3.208 44.119 3.348 44.647 3.628C45.175 3.908 45.591 4.312 45.895 4.84C46.199 5.36 46.351 5.964 46.351 6.652C46.351 7.34 46.195 7.948 45.883 8.476C45.579 8.996 45.159 9.396 44.623 9.676C44.095 9.956 43.503 10.096 42.847 10.096ZM42.847 8.32C43.239 8.32 43.571 8.176 43.843 7.888C44.123 7.6 44.263 7.188 44.263 6.652C44.263 6.116 44.127 5.704 43.855 5.416C43.591 5.128 43.263 4.984 42.871 4.984C42.471 4.984 42.139 5.128 41.875 5.416C41.611 5.696 41.479 6.108 41.479 6.652C41.479 7.188 41.607 7.6 41.863 7.888C42.127 8.176 42.455 8.32 42.847 8.32ZM51.4739 8.26V10H50.4299C49.6859 10 49.1059 9.82 48.6899 9.46C48.2739 9.092 48.0659 8.496 48.0659 7.672V5.008H47.2499V3.304H48.0659V1.672H50.1179V3.304H51.4619V5.008H50.1179V7.696C50.1179 7.896 50.1659 8.04 50.2619 8.128C50.3579 8.216 50.5179 8.26 50.7419 8.26H51.4739ZM53.9511 2.608C53.5911 2.608 53.2951 2.504 53.0631 2.296C52.8391 2.08 52.7271 1.816 52.7271 1.504C52.7271 1.184 52.8391 0.92 53.0631 0.711999C53.2951 0.495999 53.5911 0.387999 53.9511 0.387999C54.3031 0.387999 54.5911 0.495999 54.8151 0.711999C55.0471 0.92 55.1631 1.184 55.1631 1.504C55.1631 1.816 55.0471 2.08 54.8151 2.296C54.5911 2.504 54.3031 2.608 53.9511 2.608ZM54.9711 3.304V10H52.9191V3.304H54.9711ZM60.1203 5.008H59.0163V10H56.9643V5.008H56.2203V3.304H56.9643V3.112C56.9643 2.288 57.2003 1.664 57.6723 1.24C58.1443 0.808 58.8363 0.592 59.7483 0.592C59.9003 0.592 60.0123 0.595999 60.0843 0.603999V2.344C59.6923 2.32 59.4163 2.376 59.2563 2.512C59.0963 2.648 59.0163 2.892 59.0163 3.244V3.304H60.1203V5.008ZM62.4188 2.608C62.0588 2.608 61.7628 2.504 61.5308 2.296C61.3068 2.08 61.1948 1.816 61.1948 1.504C61.1948 1.184 61.3068 0.92 61.5308 0.711999C61.7628 0.495999 62.0588 0.387999 62.4188 0.387999C62.7708 0.387999 63.0588 0.495999 63.2828 0.711999C63.5148 0.92 63.6308 1.184 63.6308 1.504C63.6308 1.816 63.5148 2.08 63.2828 2.296C63.0588 2.504 62.7708 2.608 62.4188 2.608ZM63.4388 3.304V10H61.3868V3.304H63.4388ZM64.82 6.652C64.82 5.956 64.96 5.348 65.24 4.828C65.528 4.308 65.924 3.908 66.428 3.628C66.94 3.348 67.524 3.208 68.18 3.208C69.02 3.208 69.72 3.428 70.28 3.868C70.848 4.308 71.22 4.928 71.396 5.728H69.212C69.028 5.216 68.672 4.96 68.144 4.96C67.768 4.96 67.468 5.108 67.244 5.404C67.02 5.692 66.908 6.108 66.908 6.652C66.908 7.196 67.02 7.616 67.244 7.912C67.468 8.2 67.768 8.344 68.144 8.344C68.672 8.344 69.028 8.088 69.212 7.576H71.396C71.22 8.36 70.848 8.976 70.28 9.424C69.712 9.872 69.012 10.096 68.18 10.096C67.524 10.096 66.94 9.956 66.428 9.676C65.924 9.396 65.528 8.996 65.24 8.476C64.96 7.956 64.82 7.348 64.82 6.652ZM72.3879 6.64C72.3879 5.952 72.5159 5.348 72.7719 4.828C73.0359 4.308 73.3919 3.908 73.8399 3.628C74.2879 3.348 74.7879 3.208 75.3399 3.208C75.8119 3.208 76.2239 3.304 76.5759 3.496C76.9359 3.688 77.2119 3.94 77.4039 4.252V3.304H79.4559V10H77.4039V9.052C77.2039 9.364 76.9239 9.616 76.5639 9.808C76.2119 10 75.7999 10.096 75.3279 10.096C74.7839 10.096 74.2879 9.956 73.8399 9.676C73.3919 9.388 73.0359 8.984 72.7719 8.464C72.5159 7.936 72.3879 7.328 72.3879 6.64ZM77.4039 6.652C77.4039 6.14 77.2599 5.736 76.9719 5.44C76.6919 5.144 76.3479 4.996 75.9399 4.996C75.5319 4.996 75.1839 5.144 74.8959 5.44C74.6159 5.728 74.4759 6.128 74.4759 6.64C74.4759 7.152 74.6159 7.56 74.8959 7.864C75.1839 8.16 75.5319 8.308 75.9399 8.308C76.3479 8.308 76.6919 8.16 76.9719 7.864C77.2599 7.568 77.4039 7.164 77.4039 6.652ZM84.9746 8.26V10H83.9306C83.1866 10 82.6066 9.82 82.1906 9.46C81.7746 9.092 81.5666 8.496 81.5666 7.672V5.008H80.7506V3.304H81.5666V1.672H83.6186V3.304H84.9626V5.008H83.6186V7.696C83.6186 7.896 83.6666 8.04 83.7626 8.128C83.8586 8.216 84.0186 8.26 84.2426 8.26H84.9746ZM87.4518 2.608C87.0918 2.608 86.7958 2.504 86.5638 2.296C86.3398 2.08 86.2278 1.816 86.2278 1.504C86.2278 1.184 86.3398 0.92 86.5638 0.711999C86.7958 0.495999 87.0918 0.387999 87.4518 0.387999C87.8038 0.387999 88.0918 0.495999 88.3158 0.711999C88.5478 0.92 88.6638 1.184 88.6638 1.504C88.6638 1.816 88.5478 2.08 88.3158 2.296C88.0918 2.504 87.8038 2.608 87.4518 2.608ZM88.4718 3.304V10H86.4198V3.304H88.4718ZM93.3091 10.096C92.6531 10.096 92.0611 9.956 91.5331 9.676C91.0131 9.396 90.6011 8.996 90.2971 8.476C90.0011 7.956 89.8531 7.348 89.8531 6.652C89.8531 5.964 90.0051 5.36 90.3091 4.84C90.6131 4.312 91.0291 3.908 91.5571 3.628C92.0851 3.348 92.6771 3.208 93.3331 3.208C93.9891 3.208 94.5811 3.348 95.1091 3.628C95.6371 3.908 96.0531 4.312 96.3571 4.84C96.6611 5.36 96.8131 5.964 96.8131 6.652C96.8131 7.34 96.6571 7.948 96.3451 8.476C96.0411 8.996 95.6211 9.396 95.0851 9.676C94.5571 9.956 93.9651 10.096 93.3091 10.096ZM93.3091 8.32C93.7011 8.32 94.0331 8.176 94.3051 7.888C94.5851 7.6 94.7251 7.188 94.7251 6.652C94.7251 6.116 94.5891 5.704 94.3171 5.416C94.0531 5.128 93.7251 4.984 93.3331 4.984C92.9331 4.984 92.6011 5.128 92.3371 5.416C92.0731 5.696 91.9411 6.108 91.9411 6.652C91.9411 7.188 92.0691 7.6 92.3251 7.888C92.5891 8.176 92.9171 8.32 93.3091 8.32ZM102.284 3.232C103.068 3.232 103.692 3.488 104.156 4C104.628 4.504 104.864 5.2 104.864 6.088V10H102.824V6.364C102.824 5.916 102.708 5.568 102.476 5.32C102.244 5.072 101.932 4.948 101.54 4.948C101.148 4.948 100.836 5.072 100.604 5.32C100.372 5.568 100.256 5.916 100.256 6.364V10H98.2039V3.304H100.256V4.192C100.464 3.896 100.744 3.664 101.096 3.496C101.448 3.32 101.844 3.232 102.284 3.232ZM109.316 10.096C108.732 10.096 108.212 9.996 107.756 9.796C107.3 9.596 106.94 9.324 106.676 8.98C106.412 8.628 106.264 8.236 106.232 7.804H108.26C108.284 8.036 108.392 8.224 108.584 8.368C108.776 8.512 109.012 8.584 109.292 8.584C109.548 8.584 109.744 8.536 109.88 8.44C110.024 8.336 110.096 8.204 110.096 8.044C110.096 7.852 109.996 7.712 109.796 7.624C109.596 7.528 109.272 7.424 108.824 7.312C108.344 7.2 107.944 7.084 107.624 6.964C107.304 6.836 107.028 6.64 106.796 6.376C106.564 6.104 106.448 5.74 106.448 5.284C106.448 4.9 106.552 4.552 106.76 4.24C106.976 3.92 107.288 3.668 107.696 3.484C108.112 3.3 108.604 3.208 109.172 3.208C110.012 3.208 110.672 3.416 111.152 3.832C111.64 4.248 111.92 4.8 111.992 5.488H110.096C110.064 5.256 109.96 5.072 109.784 4.936C109.616 4.8 109.392 4.732 109.112 4.732C108.872 4.732 108.688 4.78 108.56 4.876C108.432 4.964 108.368 5.088 108.368 5.248C108.368 5.44 108.468 5.584 108.668 5.68C108.876 5.776 109.196 5.872 109.628 5.968C110.124 6.096 110.528 6.224 110.84 6.352C111.152 6.472 111.424 6.672 111.656 6.952C111.896 7.224 112.02 7.592 112.028 8.056C112.028 8.448 111.916 8.8 111.692 9.112C111.476 9.416 111.16 9.656 110.744 9.832C110.336 10.008 109.86 10.096 109.316 10.096Z" fill="#383838"/>
</svg>
